<svg xmlns="http://www.w3.org/2000/svg" xmlns:xlink="http://www.w3.org/1999/xlink" width="24" height="23" viewBox="0 0 24 23">
	<g fill="#ffffff" fill-rule="evenodd" transform="translate(-11 -12)">
		<path d="M16.932 16.53a.618.618 0 0 1-.619-.618v-3.318a.618.618 0 1 1 1.237 0v3.318a.618.618 0 0 1-.618.618zM29.068 16.53a.618.618 0 0 1-.618-.618v-3.318a.618.618 0 1 1 1.237 0v3.318a.618.618 0 0 1-.619.618z"/>
		<path d="M32.973 34.024H13.027a1.03 1.03 0 0 1-1.03-1.03V14.758c0-.57.46-1.03 1.03-1.03h3.472a.618.618 0 0 1 0 1.236h-3.287v17.824h19.576V14.943H29.5a.618.618 0 1 1 0-1.236h3.472c.57 0 1.03.46 1.03 1.03v18.236a1.03 1.03 0 0 1-1.03 1.051z"/>
		<path d="M28.667 14.943H17.333a.618.618 0 0 1 0-1.216h11.334a.618.618 0 1 1 0 1.237v-.021zM33.406 19.28H12.594a.618.618 0 1 1 0-1.236h20.812a.618.618 0 1 1 0 1.237z"/>
		<path d="M12.594 33.592a.618.618 0 0 1-.34-1.134L33.066 18.59a.62.62 0 0 1 .69 1.03L12.934 33.489a.618.618 0 0 1-.34.104z"/>
	</g>
</svg>
