<svg viewBox="0 0 23 16" xmlns="http://www.w3.org/2000/svg" width="23" height="16">
  <g fill="#377FEA" fill-rule="evenodd" transform="matrix(1, 0, 0, 1, -11, -16)">
    <path d="M33.148 31.371H12.615a.618.618 0 0 1-.619-.618V17.04c0-.342.277-.618.619-.618h20.533a.618.618 0 0 1 .619.618v13.692a.618.618 0 0 1-.619.64zm-19.915-1.257H32.53V17.658H13.233v12.456z" style="fill: rgb(255, 255, 255);"/>
    <path d="M22.856 24.51a8.335 8.335 0 0 1-3.843-1.69 70.153 70.153 0 0 1-6.81-5.317.62.62 0 0 1 .824-.927 70.39 70.39 0 0 0 6.666 5.213 7.5 7.5 0 0 0 3.173 1.484c.33 0 1.185-.216 3.256-1.576a76.108 76.108 0 0 0 6.614-5.152.618.618 0 0 1 .814.927 75.923 75.923 0 0 1-6.748 5.224c-1.824 1.206-3.091 1.772-3.915 1.782l-.031.031z" style="fill: rgb(255, 255, 255);"/>
    <path d="M13.14 31.165a.618.618 0 0 1-.495-1.03l6.028-7.913a.635.635 0 0 1 1.03.742l-6.068 7.954a.618.618 0 0 1-.495.247zM32.932 31.02a.618.618 0 0 1-.484-.226l-6.182-7.737a.62.62 0 0 1 .969-.773l6.181 7.738a.618.618 0 0 1-.484 1.03v-.031z" style="fill: rgb(255, 255, 255);"/>
  </g>
</svg>