<svg width="16" height="11" viewBox="0 0 16 11" version="1.1" xmlns="http://www.w3.org/2000/svg"
     xml:space="preserve"
     style="fill-rule:evenodd;clip-rule:evenodd;stroke-linejoin:round;stroke-miterlimit:2;">
    <g transform="matrix(1,0,0,1,0.0844242,-0.131817)">
        <path d="M15.164,10.91L0.669,10.91C0.669,10.91 0.669,10.91 0.669,10.91C0.43,10.91 0.233,10.713 0.233,10.474C0.233,10.474 0.233,10.473 0.233,10.473L0.233,0.793C0.233,0.552 0.428,0.356 0.669,0.356L15.164,0.356C15.403,0.356 15.6,0.553 15.6,0.792C15.6,0.792 15.6,0.793 15.6,0.793L15.6,10.458C15.6,10.463 15.6,10.468 15.6,10.473C15.6,10.712 15.403,10.909 15.164,10.909C15.164,10.909 15.164,10.909 15.164,10.909L15.164,10.91ZM1.105,10.022L14.727,10.022L14.727,1.229L1.105,1.229L1.105,10.022Z"
              style="fill:#ffffff;fill-rule:nonzero;"/>
	    <path d="M7.898,6.065C6.907,5.906 5.973,5.495 5.185,4.873C3.507,3.722 1.902,2.469 0.378,1.12C0.284,1.037 0.231,0.918 0.231,0.793C0.231,0.552 0.429,0.354 0.669,0.354C0.776,0.354 0.88,0.394 0.96,0.465C2.453,1.785 4.024,3.014 5.665,4.145C6.319,4.666 7.087,5.025 7.905,5.193C8.138,5.193 8.742,5.04 10.204,4.08C11.826,2.955 13.385,1.741 14.873,0.444C14.949,0.385 15.043,0.354 15.139,0.354C15.378,0.354 15.575,0.55 15.575,0.79C15.575,0.905 15.529,1.016 15.447,1.098C13.93,2.415 12.34,3.646 10.684,4.785C9.396,5.636 8.502,6.036 7.92,6.044L7.898,6.065Z"
	          style="fill:#ffffff;fill-rule:nonzero;"/>
	    <path d="M1.04,10.764C1.031,10.765 1.022,10.765 1.013,10.765C0.774,10.765 0.577,10.568 0.577,10.329C0.577,10.221 0.617,10.116 0.69,10.036L4.945,4.451C5.029,4.334 5.165,4.265 5.309,4.265C5.555,4.265 5.757,4.467 5.757,4.713C5.757,4.807 5.728,4.899 5.673,4.975L1.389,10.589C1.307,10.699 1.177,10.764 1.04,10.764ZM15.01,10.662C14.878,10.663 14.753,10.604 14.67,10.502L10.304,5.04C10.242,4.963 10.209,4.866 10.209,4.768C10.209,4.528 10.406,4.33 10.646,4.33C10.779,4.33 10.905,4.391 10.988,4.495L15.352,9.956C15.424,10.036 15.465,10.14 15.465,10.248C15.465,10.488 15.268,10.684 15.029,10.684C15.022,10.684 15.016,10.684 15.01,10.684L15.01,10.662Z"
	          style="fill:#ffffff;fill-rule:nonzero;"/>
    </g>
</svg>
