<?xml version="1.0" encoding="utf-8"?>
<svg width="24" height="14" viewBox="0 0 24 14" xmlns="http://www.w3.org/2000/svg">
  <defs>
    <circle id="b" cx="30" cy="30" r="30"/>
    <filter id="a" width="176.7%" height="176.7%" x="-38.3%" y="-21.7%" filterUnits="objectBoundingBox">
      <feOffset dy="10" in="SourceAlpha" result="shadowOffsetOuter1"/>
      <feGaussianBlur in="shadowOffsetOuter1" result="shadowBlurOuter1" stdDeviation="6"/>
      <feColorMatrix in="shadowBlurOuter1" values="0 0 0 0 0 0 0 0 0 0 0 0 0 0 0 0 0 0 0.1 0"/>
    </filter>
  </defs>
  <g fill="none" fill-rule="evenodd">
    <g transform="translate(-18 -22)">
      <circle cx="30" cy="30" r="30" transform="matrix(1, 0, 0, 1, 0, 0)" filter="url(#a)" style="fill: rgb(24, 24, 24);"/>
      <circle cx="30" cy="30" r="30" transform="matrix(1, 0, 0, 1, 0, 0)" style="fill: rgb(24, 24, 24);"/>
    </g>
    <path fill-rule="nonzero" d="M12.11.778c-1.218 0-2.327.661-3.214 1.455L.694 12.025c-.333.397-.333 1.058 0 1.455a.773.773 0 0 0 1.22 0l8.202-9.791c1.108-1.323 2.66-1.323 3.768 0l8.203 9.791a.773.773 0 0 0 1.22 0c.332-.397.332-1.058 0-1.455l-8.203-9.792C14.439 1.44 13.33.778 12.11.778z" style="fill: rgb(255, 255, 255);"/>
  </g>
</svg>