<svg xmlns="http://www.w3.org/2000/svg" width="13" height="14" viewBox="0 0 13 14">
    <g fill="none" fill-rule="evenodd" transform="translate(-1337 -40)">
        <g fill="#787878" fill-rule="nonzero">
            <path d="M1349.395 53.208c-.138 0-.346 0-.415-.145l-11.052-11.667a.595.595 0 0 1 0-.802.522.522 0 0 1 .76 0l11.052 11.666a.595.595 0 0 1 0 .803c0 .145-.207.145-.345.145z"/>
            <path d="M1338.342 53.208c-.138 0-.345 0-.414-.145a.595.595 0 0 1 0-.803l11.052-11.666a.522.522 0 0 1 .76 0 .595.595 0 0 1 0 .802l-11.053 11.667c0 .145-.207.145-.345.145z"/>
        </g>
    </g>
</svg>