<svg xmlns="http://www.w3.org/2000/svg" width="15" height="16" viewBox="0 0 15 16">
    <g fill="#FFFFFF">
        <path d="M8.94 15.753a9.673 9.673 0 0 1-3.607-.826 7.293 7.293 0 0 0-3.28-.667.401.401 0 0 1-.066-.8 8 8 0 0 1 3.633.733 8.627 8.627 0 0 0 3.607.767c2.486-.233 3.386-.76 3.4-1.14a.62.62 0 0 0-.074-.347 2 2 0 0 1-.166-.553c-.067-.413.293-.62.533-.753.24-.134.44-.274.44-.474a.747.747 0 0 0-.253-.593.807.807 0 0 1-.274-.56.667.667 0 0 1 .32-.547.72.72 0 0 0 .294-.666c0-.34-.16-.48-.42-.667a.667.667 0 0 1-.394-.667.667.667 0 0 1 .107-.233.547.547 0 0 0 .047-.633c-.08-.1-.34-.46-1.547-.46a5.06 5.06 0 0 0-1.293.16 10.76 10.76 0 0 1-1.54.246 1.48 1.48 0 0 1-1.387-.42 2 2 0 0 1-.147-1.9l.16-.52c.307-.98.6-1.9.16-2.666-.16-.28-.48-.527-.666-.5-.187.026-.214.246-.247.386a13.06 13.06 0 0 1-2.787 5.214c-.266.294-.49.624-.666.98C2.46 8.313 2.047 9.02.86 9.02a.4.4 0 1 1 0-.8c.72 0 .913-.347 1.273-.967.217-.416.49-.8.814-1.14A12.307 12.307 0 0 0 5.48 1.24c.187-.793.667-.967.913-1.007a1.64 1.64 0 0 1 1.474.914c.62 1.04.246 2.226-.087 3.28l-.16.506c-.16.554-.167.974 0 1.16.167.187.453.167.667.14A10 10 0 0 0 9.753 6c.48-.123.972-.183 1.467-.18 1.453 0 2 .487 2.233.847.251.405.266.913.04 1.333.472.277.757.787.747 1.333.039.484-.16.957-.533 1.267.3.296.465.704.453 1.127a1.333 1.333 0 0 1-.827 1.12l-.113.066c.022.078.05.154.087.227.103.207.154.436.146.667 0 1.026-1.386 1.653-4.14 1.913l-.373.033z"/>
    </g>
</svg>