<svg xmlns="http://www.w3.org/2000/svg" width="16" height="16" viewBox="0 0 16 16">
	<g fill="#FFFFFF" fill-rule="nonzero">
		<path d="M3.853 14.453a.4.4 0 0 1-.4-.4v-3.386a.4.4 0 1 1 .8 0v3.406a.4.4 0 0 1-.4.38zM3.853 3.707A1.68 1.68 0 1 1 3.84.347a1.68 1.68 0 0 1 .013 3.36zm0-2.554a.88.88 0 1 0-.012 1.76.88.88 0 0 0 .012-1.76zM.98 10.087a.4.4 0 0 1-.4-.4v-4A1.84 1.84 0 0 1 2.413 3.86h.48a.4.4 0 1 1 0 .8h-.48A1.04 1.04 0 0 0 1.38 5.693v4a.4.4 0 0 1-.4.394zM7.66 6.1a.4.4 0 0 1-.22-.067L5.787 4.94a1.16 1.16 0 0 0-.6-.193h-.36a.4.4 0 1 1 0-.8h.36c.363.011.717.125 1.02.326l1.466.98 1.84-.766a.4.4 0 1 1 .307.74l-2.007.84a.4.4 0 0 1-.153.033z"/>
		<path d="M4.667 15.2A1.2 1.2 0 0 1 3.453 14a.4.4 0 1 1 .8 0 .4.4 0 1 0 .794 0V6a.4.4 0 0 1 .62-.333L7.44 6.84 10 5.693a.487.487 0 0 0 .307-.253.167.167 0 0 0 0-.12.413.413 0 0 0-.487-.1.4.4 0 0 1-.3-.74 1.2 1.2 0 0 1 1.487.44.96.96 0 0 1 .06.78 1.247 1.247 0 0 1-.754.727l-2.56 1.12a.807.807 0 0 1-.78-.067l-1.126-.753V14a1.2 1.2 0 0 1-1.18 1.2zM1.613 10.727a1.04 1.04 0 0 1-1.04-1.04.4.4 0 1 1 .8 0 .24.24 0 1 0 .48 0 .4.4 0 1 1 .8 0 1.04 1.04 0 0 1-1.04 1.04z"/>
		<path d="M3.053 15.2a1.2 1.2 0 0 1-1.2-1.2V6.5a.4.4 0 1 1 .8 0V14a.4.4 0 1 0 .8 0 .4.4 0 1 1 .8 0 1.2 1.2 0 0 1-1.2 1.2zM15.02 10.727H6.407a.4.4 0 1 1 0-.8h8.213v-8.14H6.087a.4.4 0 1 1 0-.8h8.933c.22 0 .4.179.4.4v8.94a.4.4 0 0 1-.4.4z"/>
		<path d="M9.593 1.787a.4.4 0 0 1-.4-.4V.433a.4.4 0 1 1 .8 0v.954a.4.4 0 0 1-.4.4zM8 14.56a.4.4 0 0 1-.36-.58l1.913-3.833a.4.4 0 1 1 .714.36L8.353 14.34a.4.4 0 0 1-.353.22z"/>
		<path d="M11.82 14.56a.4.4 0 0 1-.36-.22l-1.913-3.833a.4.4 0 1 1 .713-.36L12.18 14a.4.4 0 0 1-.36.58v-.02z"/>
	</g>
</svg>