<svg xmlns="http://www.w3.org/2000/svg" xmlns:xlink="http://www.w3.org/1999/xlink" version="1.1" x="0px" y="0px" width="16px" height="16px"
     viewBox="0 0 1000 1000" enable-background="new 0 0 1000 1000" xml:space="preserve">
	<g><g transform="translate(0.000000,511.000000) scale(0.100000,-0.100000)">
		<path fill="#FFFFFF" d="M6767.3,4970.7c-91.3-19.2-281.2-91.3-420.5-158.6l-252.3-120.1L4801.7,3401.6C4088,2692.7,3463.2,2051.1,3410.4,1974.2c-233.1-338.8-319.6-624.8-319.6-1050.1c0-245.1,12-331.6,55.3-478.2l57.7-177.8l293.2,293.2l295.6,295.6l28.8,194.6c16.8,134.6,52.9,249.9,108.1,365.3c76.9,156.2,182.6,266.7,1352.9,1432.2c1172.6,1165.4,1280.8,1268.8,1420.1,1328.8c84.1,36,221.1,76.9,307.6,91.3c406.1,67.3,867.5-149,1083.7-511.8c206.7-343.6,199.5-814.6-14.4-1148.6c-76.9-120.2-1559.5-1602.8-2285.2-2285.2C5455.3,3.8,5378.4-56.3,5265.5-94.8c-182.6-60.1-461.4-74.5-624.8-28.8l-132.2,36l-276.3-273.9l-273.9-273.9l153.8-72.1c502.2-235.5,1110.2-230.7,1590.8,9.6c257.1,127.4,468.6,302.8,860.3,701.7c189.8,194.6,732.9,744.9,1203.9,1220.7c927.6,937.2,990,1016.5,1115,1388.9c168.2,502.2,108.1,1059.7-161,1518.7c-117.7,199.4-408.5,495-603.1,610.4C7706.9,4985.1,7226.3,5066.8,6767.3,4970.7z"/>
		<path fill="#FFFFFF" d="M4683.9,1056.3c-199.4-50.5-418.1-146.6-595.9-264.3c-235.5-158.6-2679.3-2619.2-2797.1-2816.3c-439.8-737.7-326.8-1653.2,271.5-2242c386.9-377.3,824.2-545.5,1360.1-521.4c305.2,14.4,502.2,67.3,793,216.3c182.6,91.3,252.3,156.2,1473,1372.1c706.5,701.7,1328.8,1340.9,1386.5,1420.2c247.5,348.4,336.4,632,334,1081.3c-2.4,240.3-12,346-48.1,456.6c-26.5,79.3-55.3,141.8-64.9,139.4c-12-2.4-146.6-127.4-305.2-278.7l-283.5-271.6L6181-842.1c-55.3-391.7-12-336.4-1417.8-1749.4c-1163-1167.9-1278.4-1276-1432.2-1352.9c-319.6-158.6-641.6-163.4-956.4-14.4c-586.3,276.3-800.2,1021.3-451.8,1559.5c38.5,64.9,632,672.8,1316.8,1355.3C4575.8,289.7,4571,282.5,4883.4,349.8c117.7,26.4,374.9,16.8,526.3-14.4c50.4-12,100.9,24,331.6,240.3c146.6,141.8,269.1,264.3,269.1,273.9c0,31.3-271.5,144.2-471,194.6C5318.3,1101.9,4895.4,1106.7,4683.9,1056.3z"/></g></g>
</svg>