<?xml version="1.0" encoding="utf-8"?>
<svg viewBox="0 0 13 16" xmlns="http://www.w3.org/2000/svg">
  <g fill="#377FEA" fill-rule="nonzero">
    <path d="M12.312 15.792H1.8A1.792 1.792 0 0 1 0 14V2.168A1.792 1.792 0 0 1 1.8.376h10.512a.48.48 0 0 1 .48.48v14.456a.48.48 0 0 1-.48.48zM1.8 1.336a.8.8 0 0 0-.8.8V14a.8.8 0 0 0 .8.8h10.032V1.336H1.8z" style="fill: rgb(255, 255, 255);"/>
    <path d="M.488 14.48a.48.48 0 0 1-.48-.48c0-.99.802-1.792 1.792-1.792h10.512a.48.48 0 1 1 0 .96H1.8a.8.8 0 0 0-.8.8.48.48 0 0 1-.512.512zM10.344 4.624h-7.2a.48.48 0 1 1 0-.96h7.2a.48.48 0 1 1 0 .96z" style="fill: rgb(255, 255, 255);"/>
  </g>
</svg>