<?xml version="1.0" encoding="utf-8"?>
<svg viewBox="0 0 13 16" xmlns="http://www.w3.org/2000/svg">
  <g fill="#377FEA" fill-rule="nonzero">
    <path d="M8.575 2.91H4.313a.436.436 0 0 1-.437-.437V.61c0-.241.196-.436.437-.436h4.262A.436.436 0 0 1 9.01.61v1.854a.436.436 0 0 1-.436.444zm-3.826-.874h3.39v-.989h-3.39v.99z" style="fill: rgb(255, 255, 255);"/>
    <path d="M12.022 15.71H.895a.436.436 0 0 1-.437-.437V1.535c0-.241.196-.437.437-.437h3.418a.436.436 0 1 1 0 .873H1.33v12.865h10.254V1.971h-2.8a.436.436 0 1 1 0-.873h3.237a.436.436 0 0 1 .436.437v13.738a.436.436 0 0 1-.436.436z" style="fill: rgb(255, 255, 255);"/>
    <path d="M9.687 5.68H3.193a.436.436 0 0 1 0-.873H9.68a.436.436 0 0 1 0 .873h.007zM9.687 7.95H3.193a.436.436 0 0 1 0-.874H9.68a.436.436 0 0 1 0 .873h.007zM9.687 10.225H3.193a.436.436 0 1 1 0-.872H9.68a.436.436 0 0 1 0 .872h.007zM9.687 12.495H3.193a.436.436 0 0 1 0-.873H9.68a.436.436 0 1 1 0 .873h.007z" style="fill: rgb(255, 255, 255);"/>
  </g>
</svg>