<?xml version="1.0" encoding="utf-8"?>
<svg viewBox="-2 0 30 26" xmlns="http://www.w3.org/2000/svg">
  <g id="surface1">
    <path fill="none" stroke-width="2" style="stroke: rgb(255, 255, 255);" d="M 25.96875 9.480469 C 25.890625 9.234375 25.671875 9.058594 25.417969 9.03125 L 17.027344 8.136719 L 13.59375 0.355469 C 13.382813 -0.117188 12.613281 -0.117188 12.40625 0.355469 L 8.972656 8.136719 L 0.582031 9.03125 C 0.324219 9.058594 0.109375 9.234375 0.03125 9.480469 C -0.046875 9.726563 0.0234375 9.996094 0.214844 10.171875 L 6.480469 15.875 L 4.730469 24.207031 C 4.679688 24.460938 4.777344 24.722656 4.984375 24.875 C 5.097656 24.957031 5.230469 25 5.367188 25 C 5.476563 25 5.589844 24.972656 5.691406 24.910156 L 13 20.65625 L 20.308594 24.910156 C 20.53125 25.039063 20.808594 25.027344 21.015625 24.875 C 21.222656 24.722656 21.320313 24.460938 21.269531 24.207031 L 19.519531 15.871094 L 25.785156 10.167969 C 25.976563 9.996094 26.046875 9.726563 25.96875 9.480469 Z "/>
  </g>
</svg>